<?xml version="1.0"?>
<mxfile host="Electron" modified="2022-06-30T15:02:53.911Z" agent="5.0 (X11; Linux x86_64) AppleWebKit/537.36 (KHTML, like Gecko) draw.io/18.1.3 Chrome/100.0.4896.143 Electron/18.2.3 Safari/537.36" etag="ceBUwGh07MlTGt-6FTxu" version="18.1.3">
  <diagram id="EjLPqHsa3jpSlwRIpOHd" name="Page-1">
    <mxGraphModel dx="2" dy="1" grid="1" gridSize="10" guides="1" tooltips="1" connect="1" arrows="1" fold="1" page="1" pageScale="1" pageWidth="850" pageHeight="1100" math="0" shadow="0">
      <root>
        <mxCell id="0"/>
        <mxCell id="1" parent="0"/>
        <mxCell id="JtBp5-Y0KFnmSsRjvcdL-2" value="Enter BT Mode" style="rounded=0;whiteSpace=wrap;html=1;fillColor=#dae8fc;strokeColor=#6c8ebf;sketch=1;fontFamily=mono;" parent="1" vertex="1">
          <mxGeometry x="410" y="80" width="60" height="40" as="geometry"/>
        </mxCell>
        <mxCell id="JtBp5-Y0KFnmSsRjvcdL-3" style="edgeStyle=orthogonalEdgeStyle;rounded=1;orthogonalLoop=1;jettySize=auto;html=1;fillColor=#d5e8d4;strokeColor=#82b366;sketch=1;entryX=0.5;entryY=0;entryDx=0;entryDy=0;exitX=1;exitY=0.5;exitDx=0;exitDy=0;fontFamily=mono;" parent="1" source="JtBp5-Y0KFnmSsRjvcdL-2" target="JtBp5-Y0KFnmSsRjvcdL-6" edge="1">
          <mxGeometry relative="1" as="geometry">
            <mxPoint x="570" y="120" as="targetPoint"/>
            <Array as="points">
              <mxPoint x="540" y="100"/>
            </Array>
            <mxPoint x="470" y="140" as="sourcePoint"/>
          </mxGeometry>
        </mxCell>
        <mxCell id="JtBp5-Y0KFnmSsRjvcdL-5" style="edgeStyle=orthogonalEdgeStyle;rounded=1;orthogonalLoop=1;jettySize=auto;html=1;fillColor=#d5e8d4;strokeColor=#82b366;sketch=1;exitX=0.5;exitY=1;exitDx=0;exitDy=0;entryX=1;entryY=0.5;entryDx=0;entryDy=0;fontFamily=mono;" parent="1" source="JtBp5-Y0KFnmSsRjvcdL-6" target="JtBp5-Y0KFnmSsRjvcdL-10" edge="1">
          <mxGeometry relative="1" as="geometry">
            <mxPoint x="570" y="230" as="sourcePoint"/>
            <Array as="points">
              <mxPoint x="540" y="180"/>
            </Array>
            <mxPoint x="470" y="220" as="targetPoint"/>
          </mxGeometry>
        </mxCell>
        <mxCell id="JtBp5-Y0KFnmSsRjvcdL-6" value="Guest&lt;br&gt;Exec" style="rounded=0;whiteSpace=wrap;html=1;fillColor=#f8cecc;strokeColor=#b85450;sketch=1;fontFamily=mono;" parent="1" vertex="1">
          <mxGeometry x="510" y="120" width="60" height="40" as="geometry"/>
        </mxCell>
        <mxCell id="JtBp5-Y0KFnmSsRjvcdL-9" style="edgeStyle=orthogonalEdgeStyle;rounded=1;orthogonalLoop=1;jettySize=auto;html=1;fillColor=#dae8fc;strokeColor=#6c8ebf;sketch=1;fontFamily=mono;" parent="1" source="JtBp5-Y0KFnmSsRjvcdL-10" target="JtBp5-Y0KFnmSsRjvcdL-2" edge="1">
          <mxGeometry relative="1" as="geometry">
            <Array as="points">
              <mxPoint x="390" y="180"/>
              <mxPoint x="390" y="100"/>
            </Array>
          </mxGeometry>
        </mxCell>
        <mxCell id="JtBp5-Y0KFnmSsRjvcdL-10" value="Handle Exit" style="rounded=0;whiteSpace=wrap;html=1;fillColor=#d5e8d4;strokeColor=#82b366;sketch=1;fontFamily=mono;" parent="1" vertex="1">
          <mxGeometry x="410" y="160" width="60" height="40" as="geometry"/>
        </mxCell>
        <mxCell id="JtBp5-Y0KFnmSsRjvcdL-19" value="&lt;b&gt;User Mode&lt;/b&gt;" style="text;html=1;align=center;verticalAlign=middle;resizable=0;points=[];autosize=1;strokeColor=none;fillColor=none;sketch=1;fontFamily=mono;" parent="1" vertex="1">
          <mxGeometry x="400" y="50" width="80" height="20" as="geometry"/>
        </mxCell>
        <mxCell id="JtBp5-Y0KFnmSsRjvcdL-22" value="" style="endArrow=none;dashed=1;html=1;rounded=0;fillColor=#f5f5f5;strokeColor=#666666;sketch=1;fontFamily=mono;" parent="1" edge="1">
          <mxGeometry width="50" height="50" relative="1" as="geometry">
            <mxPoint x="490" y="200" as="sourcePoint"/>
            <mxPoint x="490" y="50" as="targetPoint"/>
          </mxGeometry>
        </mxCell>
        <mxCell id="JtBp5-Y0KFnmSsRjvcdL-23" value="&lt;b&gt;BT Mode&lt;/b&gt;" style="text;html=1;align=center;verticalAlign=middle;resizable=0;points=[];autosize=1;strokeColor=none;fillColor=none;sketch=1;fontFamily=mono;" parent="1" vertex="1">
          <mxGeometry x="505" y="50" width="70" height="20" as="geometry"/>
        </mxCell>
      </root>
    </mxGraphModel>
  </diagram>
</mxfile>
